<svg xmlns="http://www.w3.org/2000/svg" width="792" height="164"
     viewBox="0 0 792 164" font-family="Consolas, 'SF Mono', monospace">
  <style>
    .bg { fill: #0d1117; }
    .month { fill: #8b949e; font-size: 10px; }
    .legend-text { fill: #8b949e; font-size: 10px; }
    .footer { fill: #8b949e; font-size: 11px; }
    .cell {
      opacity: 0;
      transform-box: fill-box;
      transform-origin: center;
      animation: reveal 0.35s ease-out forwards;
    }
    @keyframes reveal {
      0%   { opacity: 0; transform: translate(-6px, -6px) scale(0.4); }
      100% { opacity: 1; transform: translate(0, 0) scale(1); }
    }
  </style>
  <rect class="bg" x="0" y="0" width="792" height="164" rx="8" />
  <text x="30" y="14" class="month">Jul</text><text x="58" y="14" class="month">Aug</text><text x="128" y="14" class="month">Sep</text><text x="184" y="14" class="month">Oct</text><text x="240" y="14" class="month">Nov</text><text x="310" y="14" class="month">Dec</text><text x="366" y="14" class="month">Jan</text><text x="422" y="14" class="month">Feb</text><text x="478" y="14" class="month">Mar</text><text x="548" y="14" class="month">Apr</text><text x="604" y="14" class="month">May</text><text x="674" y="14" class="month">Jun</text><text x="730" y="14" class="month">Jul</text>
  <rect class="cell" x="30" y="20" width="11" height="11" rx="2.5" ry="2.5" fill="#161b22" style="animation-delay:0.000s" /><rect class="cell" x="30" y="34" width="11" height="11" rx="2.5" ry="2.5" fill="#161b22" style="animation-delay:0.006s" /><rect class="cell" x="30" y="48" width="11" height="11" rx="2.5" ry="2.5" fill="#161b22" style="animation-delay:0.012s" /><rect class="cell" x="30" y="62" width="11" height="11" rx="2.5" ry="2.5" fill="#161b22" style="animation-delay:0.018s" /><rect class="cell" x="30" y="76" width="11" height="11" rx="2.5" ry="2.5" fill="#161b22" style="animation-delay:0.024s" /><rect class="cell" x="30" y="90" width="11" height="11" rx="2.5" ry="2.5" fill="#161b22" style="animation-delay:0.030s" /><rect class="cell" x="30" y="104" width="11" height="11" rx="2.5" ry="2.5" fill="#161b22" style="animation-delay:0.036s" /><rect class="cell" x="44" y="20" width="11" height="11" rx="2.5" ry="2.5" fill="#161b22" style="animation-delay:0.006s" /><rect class="cell" x="44" y="34" width="11" height="11" rx="2.5" ry="2.5" fill="#161b22" style="animation-delay:0.012s" /><rect class="cell" x="44" y="48" width="11" height="11" rx="2.5" ry="2.5" fill="#161b22" style="animation-delay:0.018s" /><rect class="cell" x="44" y="62" width="11" height="11" rx="2.5" ry="2.5" fill="#161b22" style="animation-delay:0.024s" /><rect class="cell" x="44" y="76" width="11" height="11" rx="2.5" ry="2.5" fill="#161b22" style="animation-delay:0.030s" /><rect class="cell" x="44" y="90" width="11" height="11" rx="2.5" ry="2.5" fill="#161b22" style="animation-delay:0.036s" /><rect class="cell" x="44" y="104" width="11" height="11" rx="2.5" ry="2.5" fill="#161b22" style="animation-delay:0.042s" /><rect class="cell" x="58" y="20" width="11" height="11" rx="2.5" ry="2.5" fill="#161b22" style="animation-delay:0.012s" /><rect class="cell" x="58" y="34" width="11" height="11" rx="2.5" ry="2.5" fill="#161b22" style="animation-delay:0.018s" /><rect class="cell" x="58" y="48" width="11" height="11" rx="2.5" ry="2.5" fill="#161b22" style="animation-delay:0.024s" /><rect class="cell" x="58" y="62" width="11" height="11" rx="2.5" ry="2.5" fill="#161b22" style="animation-delay:0.030s" /><rect class="cell" x="58" y="76" width="11" height="11" rx="2.5" ry="2.5" fill="#161b22" style="animation-delay:0.036s" /><rect class="cell" x="58" y="90" width="11" height="11" rx="2.5" ry="2.5" fill="#161b22" style="animation-delay:0.042s" /><rect class="cell" x="58" y="104" width="11" height="11" rx="2.5" ry="2.5" fill="#161b22" style="animation-delay:0.048s" /><rect class="cell" x="72" y="20" width="11" height="11" rx="2.5" ry="2.5" fill="#161b22" style="animation-delay:0.018s" /><rect class="cell" x="72" y="34" width="11" height="11" rx="2.5" ry="2.5" fill="#161b22" style="animation-delay:0.024s" /><rect class="cell" x="72" y="48" width="11" height="11" rx="2.5" ry="2.5" fill="#161b22" style="animation-delay:0.030s" /><rect class="cell" x="72" y="62" width="11" height="11" rx="2.5" ry="2.5" fill="#161b22" style="animation-delay:0.036s" /><rect class="cell" x="72" y="76" width="11" height="11" rx="2.5" ry="2.5" fill="#161b22" style="animation-delay:0.042s" /><rect class="cell" x="72" y="90" width="11" height="11" rx="2.5" ry="2.5" fill="#161b22" style="animation-delay:0.048s" /><rect class="cell" x="72" y="104" width="11" height="11" rx="2.5" ry="2.5" fill="#161b22" style="animation-delay:0.054s" /><rect class="cell" x="86" y="20" width="11" height="11" rx="2.5" ry="2.5" fill="#161b22" style="animation-delay:0.024s" /><rect class="cell" x="86" y="34" width="11" height="11" rx="2.5" ry="2.5" fill="#161b22" style="animation-delay:0.030s" /><rect class="cell" x="86" y="48" width="11" height="11" rx="2.5" ry="2.5" fill="#161b22" style="animation-delay:0.036s" /><rect class="cell" x="86" y="62" width="11" height="11" rx="2.5" ry="2.5" fill="#161b22" style="animation-delay:0.042s" /><rect class="cell" x="86" y="76" width="11" height="11" rx="2.5" ry="2.5" fill="#161b22" style="animation-delay:0.048s" /><rect class="cell" x="86" y="90" width="11" height="11" rx="2.5" ry="2.5" fill="#161b22" style="animation-delay:0.054s" /><rect class="cell" x="86" y="104" width="11" height="11" rx="2.5" ry="2.5" fill="#161b22" style="animation-delay:0.060s" /><rect class="cell" x="100" y="20" width="11" height="11" rx="2.5" ry="2.5" fill="#161b22" style="animation-delay:0.030s" /><rect class="cell" x="100" y="34" width="11" height="11" rx="2.5" ry="2.5" fill="#161b22" style="animation-delay:0.036s" /><rect class="cell" x="100" y="48" width="11" height="11" rx="2.5" ry="2.5" fill="#161b22" style="animation-delay:0.042s" /><rect class="cell" x="100" y="62" width="11" height="11" rx="2.5" ry="2.5" fill="#161b22" style="animation-delay:0.048s" /><rect class="cell" x="100" y="76" width="11" height="11" rx="2.5" ry="2.5" fill="#161b22" style="animation-delay:0.054s" /><rect class="cell" x="100" y="90" width="11" height="11" rx="2.5" ry="2.5" fill="#161b22" style="animation-delay:0.060s" /><rect class="cell" x="100" y="104" width="11" height="11" rx="2.5" ry="2.5" fill="#161b22" style="animation-delay:0.066s" /><rect class="cell" x="114" y="20" width="11" height="11" rx="2.5" ry="2.5" fill="#161b22" style="animation-delay:0.036s" /><rect class="cell" x="114" y="34" width="11" height="11" rx="2.5" ry="2.5" fill="#161b22" style="animation-delay:0.042s" /><rect class="cell" x="114" y="48" width="11" height="11" rx="2.5" ry="2.5" fill="#161b22" style="animation-delay:0.048s" /><rect class="cell" x="114" y="62" width="11" height="11" rx="2.5" ry="2.5" fill="#161b22" style="animation-delay:0.054s" /><rect class="cell" x="114" y="76" width="11" height="11" rx="2.5" ry="2.5" fill="#161b22" style="animation-delay:0.060s" /><rect class="cell" x="114" y="90" width="11" height="11" rx="2.5" ry="2.5" fill="#161b22" style="animation-delay:0.066s" /><rect class="cell" x="114" y="104" width="11" height="11" rx="2.5" ry="2.5" fill="#161b22" style="animation-delay:0.072s" /><rect class="cell" x="128" y="20" width="11" height="11" rx="2.5" ry="2.5" fill="#161b22" style="animation-delay:0.042s" /><rect class="cell" x="128" y="34" width="11" height="11" rx="2.5" ry="2.5" fill="#161b22" style="animation-delay:0.048s" /><rect class="cell" x="128" y="48" width="11" height="11" rx="2.5" ry="2.5" fill="#161b22" style="animation-delay:0.054s" /><rect class="cell" x="128" y="62" width="11" height="11" rx="2.5" ry="2.5" fill="#161b22" style="animation-delay:0.060s" /><rect class="cell" x="128" y="76" width="11" height="11" rx="2.5" ry="2.5" fill="#161b22" style="animation-delay:0.066s" /><rect class="cell" x="128" y="90" width="11" height="11" rx="2.5" ry="2.5" fill="#161b22" style="animation-delay:0.072s" /><rect class="cell" x="128" y="104" width="11" height="11" rx="2.5" ry="2.5" fill="#161b22" style="animation-delay:0.078s" /><rect class="cell" x="142" y="20" width="11" height="11" rx="2.5" ry="2.5" fill="#161b22" style="animation-delay:0.048s" /><rect class="cell" x="142" y="34" width="11" height="11" rx="2.5" ry="2.5" fill="#161b22" style="animation-delay:0.054s" /><rect class="cell" x="142" y="48" width="11" height="11" rx="2.5" ry="2.5" fill="#161b22" style="animation-delay:0.060s" /><rect class="cell" x="142" y="62" width="11" height="11" rx="2.5" ry="2.5" fill="#161b22" style="animation-delay:0.066s" /><rect class="cell" x="142" y="76" width="11" height="11" rx="2.5" ry="2.5" fill="#161b22" style="animation-delay:0.072s" /><rect class="cell" x="142" y="90" width="11" height="11" rx="2.5" ry="2.5" fill="#161b22" style="animation-delay:0.078s" /><rect class="cell" x="142" y="104" width="11" height="11" rx="2.5" ry="2.5" fill="#161b22" style="animation-delay:0.084s" /><rect class="cell" x="156" y="20" width="11" height="11" rx="2.5" ry="2.5" fill="#161b22" style="animation-delay:0.054s" /><rect class="cell" x="156" y="34" width="11" height="11" rx="2.5" ry="2.5" fill="#161b22" style="animation-delay:0.060s" /><rect class="cell" x="156" y="48" width="11" height="11" rx="2.5" ry="2.5" fill="#161b22" style="animation-delay:0.066s" /><rect class="cell" x="156" y="62" width="11" height="11" rx="2.5" ry="2.5" fill="#161b22" style="animation-delay:0.072s" /><rect class="cell" x="156" y="76" width="11" height="11" rx="2.5" ry="2.5" fill="#161b22" style="animation-delay:0.078s" /><rect class="cell" x="156" y="90" width="11" height="11" rx="2.5" ry="2.5" fill="#161b22" style="animation-delay:0.084s" /><rect class="cell" x="156" y="104" width="11" height="11" rx="2.5" ry="2.5" fill="#161b22" style="animation-delay:0.090s" /><rect class="cell" x="170" y="20" width="11" height="11" rx="2.5" ry="2.5" fill="#161b22" style="animation-delay:0.060s" /><rect class="cell" x="170" y="34" width="11" height="11" rx="2.5" ry="2.5" fill="#161b22" style="animation-delay:0.066s" /><rect class="cell" x="170" y="48" width="11" height="11" rx="2.5" ry="2.5" fill="#161b22" style="animation-delay:0.072s" /><rect class="cell" x="170" y="62" width="11" height="11" rx="2.5" ry="2.5" fill="#161b22" style="animation-delay:0.078s" /><rect class="cell" x="170" y="76" width="11" height="11" rx="2.5" ry="2.5" fill="#161b22" style="animation-delay:0.084s" /><rect class="cell" x="170" y="90" width="11" height="11" rx="2.5" ry="2.5" fill="#161b22" style="animation-delay:0.090s" /><rect class="cell" x="170" y="104" width="11" height="11" rx="2.5" ry="2.5" fill="#161b22" style="animation-delay:0.096s" /><rect class="cell" x="184" y="20" width="11" height="11" rx="2.5" ry="2.5" fill="#0e4429" style="animation-delay:0.066s" /><rect class="cell" x="184" y="34" width="11" height="11" rx="2.5" ry="2.5" fill="#161b22" style="animation-delay:0.072s" /><rect class="cell" x="184" y="48" width="11" height="11" rx="2.5" ry="2.5" fill="#161b22" style="animation-delay:0.078s" /><rect class="cell" x="184" y="62" width="11" height="11" rx="2.5" ry="2.5" fill="#161b22" style="animation-delay:0.084s" /><rect class="cell" x="184" y="76" width="11" height="11" rx="2.5" ry="2.5" fill="#161b22" style="animation-delay:0.090s" /><rect class="cell" x="184" y="90" width="11" height="11" rx="2.5" ry="2.5" fill="#161b22" style="animation-delay:0.096s" /><rect class="cell" x="184" y="104" width="11" height="11" rx="2.5" ry="2.5" fill="#161b22" style="animation-delay:0.102s" /><rect class="cell" x="198" y="20" width="11" height="11" rx="2.5" ry="2.5" fill="#161b22" style="animation-delay:0.072s" /><rect class="cell" x="198" y="34" width="11" height="11" rx="2.5" ry="2.5" fill="#161b22" style="animation-delay:0.078s" /><rect class="cell" x="198" y="48" width="11" height="11" rx="2.5" ry="2.5" fill="#161b22" style="animation-delay:0.084s" /><rect class="cell" x="198" y="62" width="11" height="11" rx="2.5" ry="2.5" fill="#161b22" style="animation-delay:0.090s" /><rect class="cell" x="198" y="76" width="11" height="11" rx="2.5" ry="2.5" fill="#161b22" style="animation-delay:0.096s" /><rect class="cell" x="198" y="90" width="11" height="11" rx="2.5" ry="2.5" fill="#161b22" style="animation-delay:0.102s" /><rect class="cell" x="198" y="104" width="11" height="11" rx="2.5" ry="2.5" fill="#161b22" style="animation-delay:0.108s" /><rect class="cell" x="212" y="20" width="11" height="11" rx="2.5" ry="2.5" fill="#161b22" style="animation-delay:0.078s" /><rect class="cell" x="212" y="34" width="11" height="11" rx="2.5" ry="2.5" fill="#161b22" style="animation-delay:0.084s" /><rect class="cell" x="212" y="48" width="11" height="11" rx="2.5" ry="2.5" fill="#161b22" style="animation-delay:0.090s" /><rect class="cell" x="212" y="62" width="11" height="11" rx="2.5" ry="2.5" fill="#161b22" style="animation-delay:0.096s" /><rect class="cell" x="212" y="76" width="11" height="11" rx="2.5" ry="2.5" fill="#161b22" style="animation-delay:0.102s" /><rect class="cell" x="212" y="90" width="11" height="11" rx="2.5" ry="2.5" fill="#161b22" style="animation-delay:0.108s" /><rect class="cell" x="212" y="104" width="11" height="11" rx="2.5" ry="2.5" fill="#26a641" style="animation-delay:0.114s" /><rect class="cell" x="226" y="20" width="11" height="11" rx="2.5" ry="2.5" fill="#161b22" style="animation-delay:0.084s" /><rect class="cell" x="226" y="34" width="11" height="11" rx="2.5" ry="2.5" fill="#006d32" style="animation-delay:0.090s" /><rect class="cell" x="226" y="48" width="11" height="11" rx="2.5" ry="2.5" fill="#161b22" style="animation-delay:0.096s" /><rect class="cell" x="226" y="62" width="11" height="11" rx="2.5" ry="2.5" fill="#161b22" style="animation-delay:0.102s" /><rect class="cell" x="226" y="76" width="11" height="11" rx="2.5" ry="2.5" fill="#161b22" style="animation-delay:0.108s" /><rect class="cell" x="226" y="90" width="11" height="11" rx="2.5" ry="2.5" fill="#161b22" style="animation-delay:0.114s" /><rect class="cell" x="226" y="104" width="11" height="11" rx="2.5" ry="2.5" fill="#161b22" style="animation-delay:0.120s" /><rect class="cell" x="240" y="20" width="11" height="11" rx="2.5" ry="2.5" fill="#161b22" style="animation-delay:0.090s" /><rect class="cell" x="240" y="34" width="11" height="11" rx="2.5" ry="2.5" fill="#161b22" style="animation-delay:0.096s" /><rect class="cell" x="240" y="48" width="11" height="11" rx="2.5" ry="2.5" fill="#161b22" style="animation-delay:0.102s" /><rect class="cell" x="240" y="62" width="11" height="11" rx="2.5" ry="2.5" fill="#161b22" style="animation-delay:0.108s" /><rect class="cell" x="240" y="76" width="11" height="11" rx="2.5" ry="2.5" fill="#161b22" style="animation-delay:0.114s" /><rect class="cell" x="240" y="90" width="11" height="11" rx="2.5" ry="2.5" fill="#161b22" style="animation-delay:0.120s" /><rect class="cell" x="240" y="104" width="11" height="11" rx="2.5" ry="2.5" fill="#161b22" style="animation-delay:0.126s" /><rect class="cell" x="254" y="20" width="11" height="11" rx="2.5" ry="2.5" fill="#161b22" style="animation-delay:0.096s" /><rect class="cell" x="254" y="34" width="11" height="11" rx="2.5" ry="2.5" fill="#161b22" style="animation-delay:0.102s" /><rect class="cell" x="254" y="48" width="11" height="11" rx="2.5" ry="2.5" fill="#161b22" style="animation-delay:0.108s" /><rect class="cell" x="254" y="62" width="11" height="11" rx="2.5" ry="2.5" fill="#39d353" style="animation-delay:0.114s" /><rect class="cell" x="254" y="76" width="11" height="11" rx="2.5" ry="2.5" fill="#0e4429" style="animation-delay:0.120s" /><rect class="cell" x="254" y="90" width="11" height="11" rx="2.5" ry="2.5" fill="#161b22" style="animation-delay:0.126s" /><rect class="cell" x="254" y="104" width="11" height="11" rx="2.5" ry="2.5" fill="#161b22" style="animation-delay:0.132s" /><rect class="cell" x="268" y="20" width="11" height="11" rx="2.5" ry="2.5" fill="#161b22" style="animation-delay:0.102s" /><rect class="cell" x="268" y="34" width="11" height="11" rx="2.5" ry="2.5" fill="#161b22" style="animation-delay:0.108s" /><rect class="cell" x="268" y="48" width="11" height="11" rx="2.5" ry="2.5" fill="#161b22" style="animation-delay:0.114s" /><rect class="cell" x="268" y="62" width="11" height="11" rx="2.5" ry="2.5" fill="#006d32" style="animation-delay:0.120s" /><rect class="cell" x="268" y="76" width="11" height="11" rx="2.5" ry="2.5" fill="#39d353" style="animation-delay:0.126s" /><rect class="cell" x="268" y="90" width="11" height="11" rx="2.5" ry="2.5" fill="#161b22" style="animation-delay:0.132s" /><rect class="cell" x="268" y="104" width="11" height="11" rx="2.5" ry="2.5" fill="#161b22" style="animation-delay:0.138s" /><rect class="cell" x="282" y="20" width="11" height="11" rx="2.5" ry="2.5" fill="#161b22" style="animation-delay:0.108s" /><rect class="cell" x="282" y="34" width="11" height="11" rx="2.5" ry="2.5" fill="#161b22" style="animation-delay:0.114s" /><rect class="cell" x="282" y="48" width="11" height="11" rx="2.5" ry="2.5" fill="#161b22" style="animation-delay:0.120s" /><rect class="cell" x="282" y="62" width="11" height="11" rx="2.5" ry="2.5" fill="#39d353" style="animation-delay:0.126s" /><rect class="cell" x="282" y="76" width="11" height="11" rx="2.5" ry="2.5" fill="#39d353" style="animation-delay:0.132s" /><rect class="cell" x="282" y="90" width="11" height="11" rx="2.5" ry="2.5" fill="#161b22" style="animation-delay:0.138s" /><rect class="cell" x="282" y="104" width="11" height="11" rx="2.5" ry="2.5" fill="#161b22" style="animation-delay:0.144s" /><rect class="cell" x="296" y="20" width="11" height="11" rx="2.5" ry="2.5" fill="#161b22" style="animation-delay:0.114s" /><rect class="cell" x="296" y="34" width="11" height="11" rx="2.5" ry="2.5" fill="#161b22" style="animation-delay:0.120s" /><rect class="cell" x="296" y="48" width="11" height="11" rx="2.5" ry="2.5" fill="#161b22" style="animation-delay:0.126s" /><rect class="cell" x="296" y="62" width="11" height="11" rx="2.5" ry="2.5" fill="#161b22" style="animation-delay:0.132s" /><rect class="cell" x="296" y="76" width="11" height="11" rx="2.5" ry="2.5" fill="#161b22" style="animation-delay:0.138s" /><rect class="cell" x="296" y="90" width="11" height="11" rx="2.5" ry="2.5" fill="#161b22" style="animation-delay:0.144s" /><rect class="cell" x="296" y="104" width="11" height="11" rx="2.5" ry="2.5" fill="#161b22" style="animation-delay:0.150s" /><rect class="cell" x="310" y="20" width="11" height="11" rx="2.5" ry="2.5" fill="#161b22" style="animation-delay:0.120s" /><rect class="cell" x="310" y="34" width="11" height="11" rx="2.5" ry="2.5" fill="#161b22" style="animation-delay:0.126s" /><rect class="cell" x="310" y="48" width="11" height="11" rx="2.5" ry="2.5" fill="#161b22" style="animation-delay:0.132s" /><rect class="cell" x="310" y="62" width="11" height="11" rx="2.5" ry="2.5" fill="#26a641" style="animation-delay:0.138s" /><rect class="cell" x="310" y="76" width="11" height="11" rx="2.5" ry="2.5" fill="#39d353" style="animation-delay:0.144s" /><rect class="cell" x="310" y="90" width="11" height="11" rx="2.5" ry="2.5" fill="#161b22" style="animation-delay:0.150s" /><rect class="cell" x="310" y="104" width="11" height="11" rx="2.5" ry="2.5" fill="#161b22" style="animation-delay:0.156s" /><rect class="cell" x="324" y="20" width="11" height="11" rx="2.5" ry="2.5" fill="#161b22" style="animation-delay:0.126s" /><rect class="cell" x="324" y="34" width="11" height="11" rx="2.5" ry="2.5" fill="#161b22" style="animation-delay:0.132s" /><rect class="cell" x="324" y="48" width="11" height="11" rx="2.5" ry="2.5" fill="#161b22" style="animation-delay:0.138s" /><rect class="cell" x="324" y="62" width="11" height="11" rx="2.5" ry="2.5" fill="#161b22" style="animation-delay:0.144s" /><rect class="cell" x="324" y="76" width="11" height="11" rx="2.5" ry="2.5" fill="#161b22" style="animation-delay:0.150s" /><rect class="cell" x="324" y="90" width="11" height="11" rx="2.5" ry="2.5" fill="#161b22" style="animation-delay:0.156s" /><rect class="cell" x="324" y="104" width="11" height="11" rx="2.5" ry="2.5" fill="#161b22" style="animation-delay:0.162s" /><rect class="cell" x="338" y="20" width="11" height="11" rx="2.5" ry="2.5" fill="#161b22" style="animation-delay:0.132s" /><rect class="cell" x="338" y="34" width="11" height="11" rx="2.5" ry="2.5" fill="#161b22" style="animation-delay:0.138s" /><rect class="cell" x="338" y="48" width="11" height="11" rx="2.5" ry="2.5" fill="#161b22" style="animation-delay:0.144s" /><rect class="cell" x="338" y="62" width="11" height="11" rx="2.5" ry="2.5" fill="#161b22" style="animation-delay:0.150s" /><rect class="cell" x="338" y="76" width="11" height="11" rx="2.5" ry="2.5" fill="#161b22" style="animation-delay:0.156s" /><rect class="cell" x="338" y="90" width="11" height="11" rx="2.5" ry="2.5" fill="#161b22" style="animation-delay:0.162s" /><rect class="cell" x="338" y="104" width="11" height="11" rx="2.5" ry="2.5" fill="#161b22" style="animation-delay:0.168s" /><rect class="cell" x="352" y="20" width="11" height="11" rx="2.5" ry="2.5" fill="#161b22" style="animation-delay:0.138s" /><rect class="cell" x="352" y="34" width="11" height="11" rx="2.5" ry="2.5" fill="#161b22" style="animation-delay:0.144s" /><rect class="cell" x="352" y="48" width="11" height="11" rx="2.5" ry="2.5" fill="#161b22" style="animation-delay:0.150s" /><rect class="cell" x="352" y="62" width="11" height="11" rx="2.5" ry="2.5" fill="#161b22" style="animation-delay:0.156s" /><rect class="cell" x="352" y="76" width="11" height="11" rx="2.5" ry="2.5" fill="#161b22" style="animation-delay:0.162s" /><rect class="cell" x="352" y="90" width="11" height="11" rx="2.5" ry="2.5" fill="#161b22" style="animation-delay:0.168s" /><rect class="cell" x="352" y="104" width="11" height="11" rx="2.5" ry="2.5" fill="#161b22" style="animation-delay:0.174s" /><rect class="cell" x="366" y="20" width="11" height="11" rx="2.5" ry="2.5" fill="#161b22" style="animation-delay:0.144s" /><rect class="cell" x="366" y="34" width="11" height="11" rx="2.5" ry="2.5" fill="#161b22" style="animation-delay:0.150s" /><rect class="cell" x="366" y="48" width="11" height="11" rx="2.5" ry="2.5" fill="#161b22" style="animation-delay:0.156s" /><rect class="cell" x="366" y="62" width="11" height="11" rx="2.5" ry="2.5" fill="#161b22" style="animation-delay:0.162s" /><rect class="cell" x="366" y="76" width="11" height="11" rx="2.5" ry="2.5" fill="#161b22" style="animation-delay:0.168s" /><rect class="cell" x="366" y="90" width="11" height="11" rx="2.5" ry="2.5" fill="#161b22" style="animation-delay:0.174s" /><rect class="cell" x="366" y="104" width="11" height="11" rx="2.5" ry="2.5" fill="#161b22" style="animation-delay:0.180s" /><rect class="cell" x="380" y="20" width="11" height="11" rx="2.5" ry="2.5" fill="#161b22" style="animation-delay:0.150s" /><rect class="cell" x="380" y="34" width="11" height="11" rx="2.5" ry="2.5" fill="#161b22" style="animation-delay:0.156s" /><rect class="cell" x="380" y="48" width="11" height="11" rx="2.5" ry="2.5" fill="#161b22" style="animation-delay:0.162s" /><rect class="cell" x="380" y="62" width="11" height="11" rx="2.5" ry="2.5" fill="#161b22" style="animation-delay:0.168s" /><rect class="cell" x="380" y="76" width="11" height="11" rx="2.5" ry="2.5" fill="#161b22" style="animation-delay:0.174s" /><rect class="cell" x="380" y="90" width="11" height="11" rx="2.5" ry="2.5" fill="#161b22" style="animation-delay:0.180s" /><rect class="cell" x="380" y="104" width="11" height="11" rx="2.5" ry="2.5" fill="#161b22" style="animation-delay:0.186s" /><rect class="cell" x="394" y="20" width="11" height="11" rx="2.5" ry="2.5" fill="#161b22" style="animation-delay:0.156s" /><rect class="cell" x="394" y="34" width="11" height="11" rx="2.5" ry="2.5" fill="#161b22" style="animation-delay:0.162s" /><rect class="cell" x="394" y="48" width="11" height="11" rx="2.5" ry="2.5" fill="#161b22" style="animation-delay:0.168s" /><rect class="cell" x="394" y="62" width="11" height="11" rx="2.5" ry="2.5" fill="#161b22" style="animation-delay:0.174s" /><rect class="cell" x="394" y="76" width="11" height="11" rx="2.5" ry="2.5" fill="#161b22" style="animation-delay:0.180s" /><rect class="cell" x="394" y="90" width="11" height="11" rx="2.5" ry="2.5" fill="#161b22" style="animation-delay:0.186s" /><rect class="cell" x="394" y="104" width="11" height="11" rx="2.5" ry="2.5" fill="#161b22" style="animation-delay:0.192s" /><rect class="cell" x="408" y="20" width="11" height="11" rx="2.5" ry="2.5" fill="#161b22" style="animation-delay:0.162s" /><rect class="cell" x="408" y="34" width="11" height="11" rx="2.5" ry="2.5" fill="#161b22" style="animation-delay:0.168s" /><rect class="cell" x="408" y="48" width="11" height="11" rx="2.5" ry="2.5" fill="#161b22" style="animation-delay:0.174s" /><rect class="cell" x="408" y="62" width="11" height="11" rx="2.5" ry="2.5" fill="#161b22" style="animation-delay:0.180s" /><rect class="cell" x="408" y="76" width="11" height="11" rx="2.5" ry="2.5" fill="#161b22" style="animation-delay:0.186s" /><rect class="cell" x="408" y="90" width="11" height="11" rx="2.5" ry="2.5" fill="#161b22" style="animation-delay:0.192s" /><rect class="cell" x="408" y="104" width="11" height="11" rx="2.5" ry="2.5" fill="#161b22" style="animation-delay:0.198s" /><rect class="cell" x="422" y="20" width="11" height="11" rx="2.5" ry="2.5" fill="#161b22" style="animation-delay:0.168s" /><rect class="cell" x="422" y="34" width="11" height="11" rx="2.5" ry="2.5" fill="#161b22" style="animation-delay:0.174s" /><rect class="cell" x="422" y="48" width="11" height="11" rx="2.5" ry="2.5" fill="#161b22" style="animation-delay:0.180s" /><rect class="cell" x="422" y="62" width="11" height="11" rx="2.5" ry="2.5" fill="#161b22" style="animation-delay:0.186s" /><rect class="cell" x="422" y="76" width="11" height="11" rx="2.5" ry="2.5" fill="#161b22" style="animation-delay:0.192s" /><rect class="cell" x="422" y="90" width="11" height="11" rx="2.5" ry="2.5" fill="#161b22" style="animation-delay:0.198s" /><rect class="cell" x="422" y="104" width="11" height="11" rx="2.5" ry="2.5" fill="#161b22" style="animation-delay:0.204s" /><rect class="cell" x="436" y="20" width="11" height="11" rx="2.5" ry="2.5" fill="#161b22" style="animation-delay:0.174s" /><rect class="cell" x="436" y="34" width="11" height="11" rx="2.5" ry="2.5" fill="#161b22" style="animation-delay:0.180s" /><rect class="cell" x="436" y="48" width="11" height="11" rx="2.5" ry="2.5" fill="#161b22" style="animation-delay:0.186s" /><rect class="cell" x="436" y="62" width="11" height="11" rx="2.5" ry="2.5" fill="#161b22" style="animation-delay:0.192s" /><rect class="cell" x="436" y="76" width="11" height="11" rx="2.5" ry="2.5" fill="#161b22" style="animation-delay:0.198s" /><rect class="cell" x="436" y="90" width="11" height="11" rx="2.5" ry="2.5" fill="#161b22" style="animation-delay:0.204s" /><rect class="cell" x="436" y="104" width="11" height="11" rx="2.5" ry="2.5" fill="#161b22" style="animation-delay:0.210s" /><rect class="cell" x="450" y="20" width="11" height="11" rx="2.5" ry="2.5" fill="#161b22" style="animation-delay:0.180s" /><rect class="cell" x="450" y="34" width="11" height="11" rx="2.5" ry="2.5" fill="#161b22" style="animation-delay:0.186s" /><rect class="cell" x="450" y="48" width="11" height="11" rx="2.5" ry="2.5" fill="#161b22" style="animation-delay:0.192s" /><rect class="cell" x="450" y="62" width="11" height="11" rx="2.5" ry="2.5" fill="#161b22" style="animation-delay:0.198s" /><rect class="cell" x="450" y="76" width="11" height="11" rx="2.5" ry="2.5" fill="#161b22" style="animation-delay:0.204s" /><rect class="cell" x="450" y="90" width="11" height="11" rx="2.5" ry="2.5" fill="#161b22" style="animation-delay:0.210s" /><rect class="cell" x="450" y="104" width="11" height="11" rx="2.5" ry="2.5" fill="#161b22" style="animation-delay:0.216s" /><rect class="cell" x="464" y="20" width="11" height="11" rx="2.5" ry="2.5" fill="#161b22" style="animation-delay:0.186s" /><rect class="cell" x="464" y="34" width="11" height="11" rx="2.5" ry="2.5" fill="#161b22" style="animation-delay:0.192s" /><rect class="cell" x="464" y="48" width="11" height="11" rx="2.5" ry="2.5" fill="#161b22" style="animation-delay:0.198s" /><rect class="cell" x="464" y="62" width="11" height="11" rx="2.5" ry="2.5" fill="#161b22" style="animation-delay:0.204s" /><rect class="cell" x="464" y="76" width="11" height="11" rx="2.5" ry="2.5" fill="#161b22" style="animation-delay:0.210s" /><rect class="cell" x="464" y="90" width="11" height="11" rx="2.5" ry="2.5" fill="#161b22" style="animation-delay:0.216s" /><rect class="cell" x="464" y="104" width="11" height="11" rx="2.5" ry="2.5" fill="#161b22" style="animation-delay:0.222s" /><rect class="cell" x="478" y="20" width="11" height="11" rx="2.5" ry="2.5" fill="#161b22" style="animation-delay:0.192s" /><rect class="cell" x="478" y="34" width="11" height="11" rx="2.5" ry="2.5" fill="#161b22" style="animation-delay:0.198s" /><rect class="cell" x="478" y="48" width="11" height="11" rx="2.5" ry="2.5" fill="#161b22" style="animation-delay:0.204s" /><rect class="cell" x="478" y="62" width="11" height="11" rx="2.5" ry="2.5" fill="#161b22" style="animation-delay:0.210s" /><rect class="cell" x="478" y="76" width="11" height="11" rx="2.5" ry="2.5" fill="#161b22" style="animation-delay:0.216s" /><rect class="cell" x="478" y="90" width="11" height="11" rx="2.5" ry="2.5" fill="#161b22" style="animation-delay:0.222s" /><rect class="cell" x="478" y="104" width="11" height="11" rx="2.5" ry="2.5" fill="#161b22" style="animation-delay:0.228s" /><rect class="cell" x="492" y="20" width="11" height="11" rx="2.5" ry="2.5" fill="#161b22" style="animation-delay:0.198s" /><rect class="cell" x="492" y="34" width="11" height="11" rx="2.5" ry="2.5" fill="#161b22" style="animation-delay:0.204s" /><rect class="cell" x="492" y="48" width="11" height="11" rx="2.5" ry="2.5" fill="#161b22" style="animation-delay:0.210s" /><rect class="cell" x="492" y="62" width="11" height="11" rx="2.5" ry="2.5" fill="#161b22" style="animation-delay:0.216s" /><rect class="cell" x="492" y="76" width="11" height="11" rx="2.5" ry="2.5" fill="#161b22" style="animation-delay:0.222s" /><rect class="cell" x="492" y="90" width="11" height="11" rx="2.5" ry="2.5" fill="#161b22" style="animation-delay:0.228s" /><rect class="cell" x="492" y="104" width="11" height="11" rx="2.5" ry="2.5" fill="#161b22" style="animation-delay:0.234s" /><rect class="cell" x="506" y="20" width="11" height="11" rx="2.5" ry="2.5" fill="#161b22" style="animation-delay:0.204s" /><rect class="cell" x="506" y="34" width="11" height="11" rx="2.5" ry="2.5" fill="#161b22" style="animation-delay:0.210s" /><rect class="cell" x="506" y="48" width="11" height="11" rx="2.5" ry="2.5" fill="#161b22" style="animation-delay:0.216s" /><rect class="cell" x="506" y="62" width="11" height="11" rx="2.5" ry="2.5" fill="#161b22" style="animation-delay:0.222s" /><rect class="cell" x="506" y="76" width="11" height="11" rx="2.5" ry="2.5" fill="#161b22" style="animation-delay:0.228s" /><rect class="cell" x="506" y="90" width="11" height="11" rx="2.5" ry="2.5" fill="#161b22" style="animation-delay:0.234s" /><rect class="cell" x="506" y="104" width="11" height="11" rx="2.5" ry="2.5" fill="#161b22" style="animation-delay:0.240s" /><rect class="cell" x="520" y="20" width="11" height="11" rx="2.5" ry="2.5" fill="#161b22" style="animation-delay:0.210s" /><rect class="cell" x="520" y="34" width="11" height="11" rx="2.5" ry="2.5" fill="#161b22" style="animation-delay:0.216s" /><rect class="cell" x="520" y="48" width="11" height="11" rx="2.5" ry="2.5" fill="#161b22" style="animation-delay:0.222s" /><rect class="cell" x="520" y="62" width="11" height="11" rx="2.5" ry="2.5" fill="#161b22" style="animation-delay:0.228s" /><rect class="cell" x="520" y="76" width="11" height="11" rx="2.5" ry="2.5" fill="#161b22" style="animation-delay:0.234s" /><rect class="cell" x="520" y="90" width="11" height="11" rx="2.5" ry="2.5" fill="#161b22" style="animation-delay:0.240s" /><rect class="cell" x="520" y="104" width="11" height="11" rx="2.5" ry="2.5" fill="#161b22" style="animation-delay:0.246s" /><rect class="cell" x="534" y="20" width="11" height="11" rx="2.5" ry="2.5" fill="#161b22" style="animation-delay:0.216s" /><rect class="cell" x="534" y="34" width="11" height="11" rx="2.5" ry="2.5" fill="#161b22" style="animation-delay:0.222s" /><rect class="cell" x="534" y="48" width="11" height="11" rx="2.5" ry="2.5" fill="#161b22" style="animation-delay:0.228s" /><rect class="cell" x="534" y="62" width="11" height="11" rx="2.5" ry="2.5" fill="#161b22" style="animation-delay:0.234s" /><rect class="cell" x="534" y="76" width="11" height="11" rx="2.5" ry="2.5" fill="#161b22" style="animation-delay:0.240s" /><rect class="cell" x="534" y="90" width="11" height="11" rx="2.5" ry="2.5" fill="#161b22" style="animation-delay:0.246s" /><rect class="cell" x="534" y="104" width="11" height="11" rx="2.5" ry="2.5" fill="#161b22" style="animation-delay:0.252s" /><rect class="cell" x="548" y="20" width="11" height="11" rx="2.5" ry="2.5" fill="#161b22" style="animation-delay:0.222s" /><rect class="cell" x="548" y="34" width="11" height="11" rx="2.5" ry="2.5" fill="#161b22" style="animation-delay:0.228s" /><rect class="cell" x="548" y="48" width="11" height="11" rx="2.5" ry="2.5" fill="#161b22" style="animation-delay:0.234s" /><rect class="cell" x="548" y="62" width="11" height="11" rx="2.5" ry="2.5" fill="#161b22" style="animation-delay:0.240s" /><rect class="cell" x="548" y="76" width="11" height="11" rx="2.5" ry="2.5" fill="#161b22" style="animation-delay:0.246s" /><rect class="cell" x="548" y="90" width="11" height="11" rx="2.5" ry="2.5" fill="#161b22" style="animation-delay:0.252s" /><rect class="cell" x="548" y="104" width="11" height="11" rx="2.5" ry="2.5" fill="#161b22" style="animation-delay:0.258s" /><rect class="cell" x="562" y="20" width="11" height="11" rx="2.5" ry="2.5" fill="#161b22" style="animation-delay:0.228s" /><rect class="cell" x="562" y="34" width="11" height="11" rx="2.5" ry="2.5" fill="#161b22" style="animation-delay:0.234s" /><rect class="cell" x="562" y="48" width="11" height="11" rx="2.5" ry="2.5" fill="#161b22" style="animation-delay:0.240s" /><rect class="cell" x="562" y="62" width="11" height="11" rx="2.5" ry="2.5" fill="#161b22" style="animation-delay:0.246s" /><rect class="cell" x="562" y="76" width="11" height="11" rx="2.5" ry="2.5" fill="#161b22" style="animation-delay:0.252s" /><rect class="cell" x="562" y="90" width="11" height="11" rx="2.5" ry="2.5" fill="#161b22" style="animation-delay:0.258s" /><rect class="cell" x="562" y="104" width="11" height="11" rx="2.5" ry="2.5" fill="#161b22" style="animation-delay:0.264s" /><rect class="cell" x="576" y="20" width="11" height="11" rx="2.5" ry="2.5" fill="#161b22" style="animation-delay:0.234s" /><rect class="cell" x="576" y="34" width="11" height="11" rx="2.5" ry="2.5" fill="#161b22" style="animation-delay:0.240s" /><rect class="cell" x="576" y="48" width="11" height="11" rx="2.5" ry="2.5" fill="#161b22" style="animation-delay:0.246s" /><rect class="cell" x="576" y="62" width="11" height="11" rx="2.5" ry="2.5" fill="#161b22" style="animation-delay:0.252s" /><rect class="cell" x="576" y="76" width="11" height="11" rx="2.5" ry="2.5" fill="#161b22" style="animation-delay:0.258s" /><rect class="cell" x="576" y="90" width="11" height="11" rx="2.5" ry="2.5" fill="#161b22" style="animation-delay:0.264s" /><rect class="cell" x="576" y="104" width="11" height="11" rx="2.5" ry="2.5" fill="#161b22" style="animation-delay:0.270s" /><rect class="cell" x="590" y="20" width="11" height="11" rx="2.5" ry="2.5" fill="#161b22" style="animation-delay:0.240s" /><rect class="cell" x="590" y="34" width="11" height="11" rx="2.5" ry="2.5" fill="#161b22" style="animation-delay:0.246s" /><rect class="cell" x="590" y="48" width="11" height="11" rx="2.5" ry="2.5" fill="#161b22" style="animation-delay:0.252s" /><rect class="cell" x="590" y="62" width="11" height="11" rx="2.5" ry="2.5" fill="#161b22" style="animation-delay:0.258s" /><rect class="cell" x="590" y="76" width="11" height="11" rx="2.5" ry="2.5" fill="#161b22" style="animation-delay:0.264s" /><rect class="cell" x="590" y="90" width="11" height="11" rx="2.5" ry="2.5" fill="#161b22" style="animation-delay:0.270s" /><rect class="cell" x="590" y="104" width="11" height="11" rx="2.5" ry="2.5" fill="#161b22" style="animation-delay:0.276s" /><rect class="cell" x="604" y="20" width="11" height="11" rx="2.5" ry="2.5" fill="#39d353" style="animation-delay:0.246s" /><rect class="cell" x="604" y="34" width="11" height="11" rx="2.5" ry="2.5" fill="#006d32" style="animation-delay:0.252s" /><rect class="cell" x="604" y="48" width="11" height="11" rx="2.5" ry="2.5" fill="#161b22" style="animation-delay:0.258s" /><rect class="cell" x="604" y="62" width="11" height="11" rx="2.5" ry="2.5" fill="#161b22" style="animation-delay:0.264s" /><rect class="cell" x="604" y="76" width="11" height="11" rx="2.5" ry="2.5" fill="#161b22" style="animation-delay:0.270s" /><rect class="cell" x="604" y="90" width="11" height="11" rx="2.5" ry="2.5" fill="#161b22" style="animation-delay:0.276s" /><rect class="cell" x="604" y="104" width="11" height="11" rx="2.5" ry="2.5" fill="#161b22" style="animation-delay:0.282s" /><rect class="cell" x="618" y="20" width="11" height="11" rx="2.5" ry="2.5" fill="#161b22" style="animation-delay:0.252s" /><rect class="cell" x="618" y="34" width="11" height="11" rx="2.5" ry="2.5" fill="#161b22" style="animation-delay:0.258s" /><rect class="cell" x="618" y="48" width="11" height="11" rx="2.5" ry="2.5" fill="#161b22" style="animation-delay:0.264s" /><rect class="cell" x="618" y="62" width="11" height="11" rx="2.5" ry="2.5" fill="#161b22" style="animation-delay:0.270s" /><rect class="cell" x="618" y="76" width="11" height="11" rx="2.5" ry="2.5" fill="#161b22" style="animation-delay:0.276s" /><rect class="cell" x="618" y="90" width="11" height="11" rx="2.5" ry="2.5" fill="#161b22" style="animation-delay:0.282s" /><rect class="cell" x="618" y="104" width="11" height="11" rx="2.5" ry="2.5" fill="#161b22" style="animation-delay:0.288s" /><rect class="cell" x="632" y="20" width="11" height="11" rx="2.5" ry="2.5" fill="#161b22" style="animation-delay:0.258s" /><rect class="cell" x="632" y="34" width="11" height="11" rx="2.5" ry="2.5" fill="#161b22" style="animation-delay:0.264s" /><rect class="cell" x="632" y="48" width="11" height="11" rx="2.5" ry="2.5" fill="#161b22" style="animation-delay:0.270s" /><rect class="cell" x="632" y="62" width="11" height="11" rx="2.5" ry="2.5" fill="#161b22" style="animation-delay:0.276s" /><rect class="cell" x="632" y="76" width="11" height="11" rx="2.5" ry="2.5" fill="#161b22" style="animation-delay:0.282s" /><rect class="cell" x="632" y="90" width="11" height="11" rx="2.5" ry="2.5" fill="#161b22" style="animation-delay:0.288s" /><rect class="cell" x="632" y="104" width="11" height="11" rx="2.5" ry="2.5" fill="#161b22" style="animation-delay:0.294s" /><rect class="cell" x="646" y="20" width="11" height="11" rx="2.5" ry="2.5" fill="#161b22" style="animation-delay:0.264s" /><rect class="cell" x="646" y="34" width="11" height="11" rx="2.5" ry="2.5" fill="#161b22" style="animation-delay:0.270s" /><rect class="cell" x="646" y="48" width="11" height="11" rx="2.5" ry="2.5" fill="#161b22" style="animation-delay:0.276s" /><rect class="cell" x="646" y="62" width="11" height="11" rx="2.5" ry="2.5" fill="#161b22" style="animation-delay:0.282s" /><rect class="cell" x="646" y="76" width="11" height="11" rx="2.5" ry="2.5" fill="#161b22" style="animation-delay:0.288s" /><rect class="cell" x="646" y="90" width="11" height="11" rx="2.5" ry="2.5" fill="#161b22" style="animation-delay:0.294s" /><rect class="cell" x="646" y="104" width="11" height="11" rx="2.5" ry="2.5" fill="#161b22" style="animation-delay:0.300s" /><rect class="cell" x="660" y="20" width="11" height="11" rx="2.5" ry="2.5" fill="#161b22" style="animation-delay:0.270s" /><rect class="cell" x="660" y="34" width="11" height="11" rx="2.5" ry="2.5" fill="#161b22" style="animation-delay:0.276s" /><rect class="cell" x="660" y="48" width="11" height="11" rx="2.5" ry="2.5" fill="#161b22" style="animation-delay:0.282s" /><rect class="cell" x="660" y="62" width="11" height="11" rx="2.5" ry="2.5" fill="#161b22" style="animation-delay:0.288s" /><rect class="cell" x="660" y="76" width="11" height="11" rx="2.5" ry="2.5" fill="#161b22" style="animation-delay:0.294s" /><rect class="cell" x="660" y="90" width="11" height="11" rx="2.5" ry="2.5" fill="#161b22" style="animation-delay:0.300s" /><rect class="cell" x="660" y="104" width="11" height="11" rx="2.5" ry="2.5" fill="#161b22" style="animation-delay:0.306s" /><rect class="cell" x="674" y="20" width="11" height="11" rx="2.5" ry="2.5" fill="#161b22" style="animation-delay:0.276s" /><rect class="cell" x="674" y="34" width="11" height="11" rx="2.5" ry="2.5" fill="#161b22" style="animation-delay:0.282s" /><rect class="cell" x="674" y="48" width="11" height="11" rx="2.5" ry="2.5" fill="#161b22" style="animation-delay:0.288s" /><rect class="cell" x="674" y="62" width="11" height="11" rx="2.5" ry="2.5" fill="#161b22" style="animation-delay:0.294s" /><rect class="cell" x="674" y="76" width="11" height="11" rx="2.5" ry="2.5" fill="#161b22" style="animation-delay:0.300s" /><rect class="cell" x="674" y="90" width="11" height="11" rx="2.5" ry="2.5" fill="#161b22" style="animation-delay:0.306s" /><rect class="cell" x="674" y="104" width="11" height="11" rx="2.5" ry="2.5" fill="#161b22" style="animation-delay:0.312s" /><rect class="cell" x="688" y="20" width="11" height="11" rx="2.5" ry="2.5" fill="#161b22" style="animation-delay:0.282s" /><rect class="cell" x="688" y="34" width="11" height="11" rx="2.5" ry="2.5" fill="#161b22" style="animation-delay:0.288s" /><rect class="cell" x="688" y="48" width="11" height="11" rx="2.5" ry="2.5" fill="#161b22" style="animation-delay:0.294s" /><rect class="cell" x="688" y="62" width="11" height="11" rx="2.5" ry="2.5" fill="#161b22" style="animation-delay:0.300s" /><rect class="cell" x="688" y="76" width="11" height="11" rx="2.5" ry="2.5" fill="#161b22" style="animation-delay:0.306s" /><rect class="cell" x="688" y="90" width="11" height="11" rx="2.5" ry="2.5" fill="#161b22" style="animation-delay:0.312s" /><rect class="cell" x="688" y="104" width="11" height="11" rx="2.5" ry="2.5" fill="#161b22" style="animation-delay:0.318s" /><rect class="cell" x="702" y="20" width="11" height="11" rx="2.5" ry="2.5" fill="#161b22" style="animation-delay:0.288s" /><rect class="cell" x="702" y="34" width="11" height="11" rx="2.5" ry="2.5" fill="#161b22" style="animation-delay:0.294s" /><rect class="cell" x="702" y="48" width="11" height="11" rx="2.5" ry="2.5" fill="#161b22" style="animation-delay:0.300s" /><rect class="cell" x="702" y="62" width="11" height="11" rx="2.5" ry="2.5" fill="#161b22" style="animation-delay:0.306s" /><rect class="cell" x="702" y="76" width="11" height="11" rx="2.5" ry="2.5" fill="#161b22" style="animation-delay:0.312s" /><rect class="cell" x="702" y="90" width="11" height="11" rx="2.5" ry="2.5" fill="#161b22" style="animation-delay:0.318s" /><rect class="cell" x="702" y="104" width="11" height="11" rx="2.5" ry="2.5" fill="#161b22" style="animation-delay:0.324s" /><rect class="cell" x="716" y="20" width="11" height="11" rx="2.5" ry="2.5" fill="#161b22" style="animation-delay:0.294s" /><rect class="cell" x="716" y="34" width="11" height="11" rx="2.5" ry="2.5" fill="#161b22" style="animation-delay:0.300s" /><rect class="cell" x="716" y="48" width="11" height="11" rx="2.5" ry="2.5" fill="#161b22" style="animation-delay:0.306s" /><rect class="cell" x="716" y="62" width="11" height="11" rx="2.5" ry="2.5" fill="#161b22" style="animation-delay:0.312s" /><rect class="cell" x="716" y="76" width="11" height="11" rx="2.5" ry="2.5" fill="#161b22" style="animation-delay:0.318s" /><rect class="cell" x="716" y="90" width="11" height="11" rx="2.5" ry="2.5" fill="#161b22" style="animation-delay:0.324s" /><rect class="cell" x="716" y="104" width="11" height="11" rx="2.5" ry="2.5" fill="#161b22" style="animation-delay:0.330s" /><rect class="cell" x="730" y="20" width="11" height="11" rx="2.5" ry="2.5" fill="#161b22" style="animation-delay:0.300s" /><rect class="cell" x="730" y="34" width="11" height="11" rx="2.5" ry="2.5" fill="#161b22" style="animation-delay:0.306s" /><rect class="cell" x="730" y="48" width="11" height="11" rx="2.5" ry="2.5" fill="#161b22" style="animation-delay:0.312s" /><rect class="cell" x="730" y="62" width="11" height="11" rx="2.5" ry="2.5" fill="#161b22" style="animation-delay:0.318s" /><rect class="cell" x="730" y="76" width="11" height="11" rx="2.5" ry="2.5" fill="#006d32" style="animation-delay:0.324s" /><rect class="cell" x="730" y="90" width="11" height="11" rx="2.5" ry="2.5" fill="#161b22" style="animation-delay:0.330s" /><rect class="cell" x="730" y="104" width="11" height="11" rx="2.5" ry="2.5" fill="#161b22" style="animation-delay:0.336s" /><rect class="cell" x="744" y="20" width="11" height="11" rx="2.5" ry="2.5" fill="#161b22" style="animation-delay:0.306s" /><rect class="cell" x="744" y="34" width="11" height="11" rx="2.5" ry="2.5" fill="#161b22" style="animation-delay:0.312s" /><rect class="cell" x="744" y="48" width="11" height="11" rx="2.5" ry="2.5" fill="#161b22" style="animation-delay:0.318s" /><rect class="cell" x="744" y="62" width="11" height="11" rx="2.5" ry="2.5" fill="#161b22" style="animation-delay:0.324s" /><rect class="cell" x="744" y="76" width="11" height="11" rx="2.5" ry="2.5" fill="#161b22" style="animation-delay:0.330s" /><rect class="cell" x="744" y="90" width="11" height="11" rx="2.5" ry="2.5" fill="#161b22" style="animation-delay:0.336s" /><rect class="cell" x="744" y="104" width="11" height="11" rx="2.5" ry="2.5" fill="#26a641" style="animation-delay:0.342s" /><rect class="cell" x="758" y="20" width="11" height="11" rx="2.5" ry="2.5" fill="#0e4429" style="animation-delay:0.312s" /><rect class="cell" x="758" y="34" width="11" height="11" rx="2.5" ry="2.5" fill="#161b22" style="animation-delay:0.318s" /><rect class="cell" x="758" y="48" width="11" height="11" rx="2.5" ry="2.5" fill="#161b22" style="animation-delay:0.324s" /><rect class="cell" x="758" y="62" width="11" height="11" rx="2.5" ry="2.5" fill="#161b22" style="animation-delay:0.330s" /><rect class="cell" x="758" y="76" width="11" height="11" rx="2.5" ry="2.5" fill="#161b22" style="animation-delay:0.336s" /><rect class="cell" x="758" y="90" width="11" height="11" rx="2.5" ry="2.5" fill="#161b22" style="animation-delay:0.342s" /><rect class="cell" x="758" y="104" width="11" height="11" rx="2.5" ry="2.5" fill="#161b22" style="animation-delay:0.348s" />
  <text x="642" y="147" class="legend-text">Less</text>
  <rect x="676" y="135" width="11" height="11" rx="2.5" fill="#161b22" /><rect x="691" y="135" width="11" height="11" rx="2.5" fill="#0e4429" /><rect x="706" y="135" width="11" height="11" rx="2.5" fill="#006d32" /><rect x="721" y="135" width="11" height="11" rx="2.5" fill="#26a641" /><rect x="736" y="135" width="11" height="11" rx="2.5" fill="#39d353" />
  <text x="757" y="147" class="legend-text">More</text>
  <text x="30" y="156" class="footer">16 active days in the last year &#183; current streak 0 &#183; longest streak 2</text>
</svg>
